<mxfile host="app.diagrams.net" modified="2023-09-22T01:00:24.133Z" agent="Mozilla/5.0 (Windows NT 10.0; Win64; x64) AppleWebKit/537.36 (KHTML, like Gecko) Chrome/116.0.0.0 Safari/537.36" etag="mbD14TES_i1pc_Mw_ht5" version="21.5.2" type="device">
  <diagram name="페이지-1" id="SuCQpS8mmWdix1lWC19C">
    <mxGraphModel dx="2206" dy="1154" grid="1" gridSize="10" guides="1" tooltips="1" connect="1" arrows="1" fold="1" page="1" pageScale="1" pageWidth="4681" pageHeight="3300" math="0" shadow="0">
      <root>
        <mxCell id="0" />
        <mxCell id="1" parent="0" />
        <mxCell id="KHaLSb36ClMd-pHoIg8B-1" value="사용자" style="shape=umlActor;verticalLabelPosition=bottom;verticalAlign=top;html=1;outlineConnect=0;" vertex="1" parent="1">
          <mxGeometry x="880" y="600" width="30" height="60" as="geometry" />
        </mxCell>
        <mxCell id="KHaLSb36ClMd-pHoIg8B-23" style="edgeStyle=orthogonalEdgeStyle;rounded=0;orthogonalLoop=1;jettySize=auto;html=1;" edge="1" parent="1" source="KHaLSb36ClMd-pHoIg8B-4" target="KHaLSb36ClMd-pHoIg8B-5">
          <mxGeometry relative="1" as="geometry" />
        </mxCell>
        <mxCell id="KHaLSb36ClMd-pHoIg8B-4" value="손님" style="shape=umlActor;verticalLabelPosition=bottom;verticalAlign=top;html=1;outlineConnect=0;" vertex="1" parent="1">
          <mxGeometry x="150" y="330" width="30" height="60" as="geometry" />
        </mxCell>
        <mxCell id="KHaLSb36ClMd-pHoIg8B-24" style="edgeStyle=orthogonalEdgeStyle;rounded=0;orthogonalLoop=1;jettySize=auto;html=1;" edge="1" parent="1" source="KHaLSb36ClMd-pHoIg8B-5" target="KHaLSb36ClMd-pHoIg8B-6">
          <mxGeometry relative="1" as="geometry" />
        </mxCell>
        <mxCell id="KHaLSb36ClMd-pHoIg8B-5" value="테이블 선택" style="ellipse;whiteSpace=wrap;html=1;" vertex="1" parent="1">
          <mxGeometry x="260" y="320" width="120" height="80" as="geometry" />
        </mxCell>
        <mxCell id="KHaLSb36ClMd-pHoIg8B-25" style="edgeStyle=orthogonalEdgeStyle;rounded=0;orthogonalLoop=1;jettySize=auto;html=1;entryX=0;entryY=0.5;entryDx=0;entryDy=0;" edge="1" parent="1" source="KHaLSb36ClMd-pHoIg8B-6" target="KHaLSb36ClMd-pHoIg8B-7">
          <mxGeometry relative="1" as="geometry" />
        </mxCell>
        <mxCell id="KHaLSb36ClMd-pHoIg8B-6" value="상품 주문 리스트" style="ellipse;whiteSpace=wrap;html=1;" vertex="1" parent="1">
          <mxGeometry x="440" y="320" width="120" height="80" as="geometry" />
        </mxCell>
        <mxCell id="KHaLSb36ClMd-pHoIg8B-26" style="edgeStyle=orthogonalEdgeStyle;rounded=0;orthogonalLoop=1;jettySize=auto;html=1;entryX=0;entryY=0.5;entryDx=0;entryDy=0;" edge="1" parent="1" source="KHaLSb36ClMd-pHoIg8B-7" target="KHaLSb36ClMd-pHoIg8B-8">
          <mxGeometry relative="1" as="geometry" />
        </mxCell>
        <mxCell id="KHaLSb36ClMd-pHoIg8B-7" value="메뉴 선택" style="ellipse;whiteSpace=wrap;html=1;" vertex="1" parent="1">
          <mxGeometry x="640" y="320" width="120" height="80" as="geometry" />
        </mxCell>
        <mxCell id="KHaLSb36ClMd-pHoIg8B-27" style="edgeStyle=orthogonalEdgeStyle;rounded=0;orthogonalLoop=1;jettySize=auto;html=1;" edge="1" parent="1" source="KHaLSb36ClMd-pHoIg8B-8" target="KHaLSb36ClMd-pHoIg8B-1">
          <mxGeometry relative="1" as="geometry" />
        </mxCell>
        <mxCell id="KHaLSb36ClMd-pHoIg8B-8" value="결제" style="ellipse;whiteSpace=wrap;html=1;" vertex="1" parent="1">
          <mxGeometry x="840" y="320" width="120" height="80" as="geometry" />
        </mxCell>
        <mxCell id="KHaLSb36ClMd-pHoIg8B-9" value="비어 있는 테이블" style="ellipse;whiteSpace=wrap;html=1;" vertex="1" parent="1">
          <mxGeometry x="1000" y="520" width="120" height="80" as="geometry" />
        </mxCell>
        <mxCell id="KHaLSb36ClMd-pHoIg8B-19" style="edgeStyle=orthogonalEdgeStyle;rounded=0;orthogonalLoop=1;jettySize=auto;html=1;entryX=0;entryY=0.5;entryDx=0;entryDy=0;" edge="1" parent="1" source="KHaLSb36ClMd-pHoIg8B-10" target="KHaLSb36ClMd-pHoIg8B-11">
          <mxGeometry relative="1" as="geometry" />
        </mxCell>
        <mxCell id="KHaLSb36ClMd-pHoIg8B-10" value="식사 중 테이블" style="ellipse;whiteSpace=wrap;html=1;" vertex="1" parent="1">
          <mxGeometry x="1000" y="680" width="120" height="80" as="geometry" />
        </mxCell>
        <mxCell id="KHaLSb36ClMd-pHoIg8B-20" style="edgeStyle=orthogonalEdgeStyle;rounded=0;orthogonalLoop=1;jettySize=auto;html=1;entryX=0;entryY=0.5;entryDx=0;entryDy=0;" edge="1" parent="1" source="KHaLSb36ClMd-pHoIg8B-11" target="KHaLSb36ClMd-pHoIg8B-12">
          <mxGeometry relative="1" as="geometry" />
        </mxCell>
        <mxCell id="KHaLSb36ClMd-pHoIg8B-21" style="edgeStyle=orthogonalEdgeStyle;rounded=0;orthogonalLoop=1;jettySize=auto;html=1;entryX=0;entryY=0.5;entryDx=0;entryDy=0;" edge="1" parent="1" source="KHaLSb36ClMd-pHoIg8B-11" target="KHaLSb36ClMd-pHoIg8B-13">
          <mxGeometry relative="1" as="geometry" />
        </mxCell>
        <mxCell id="KHaLSb36ClMd-pHoIg8B-22" style="edgeStyle=orthogonalEdgeStyle;rounded=0;orthogonalLoop=1;jettySize=auto;html=1;entryX=0;entryY=0.5;entryDx=0;entryDy=0;" edge="1" parent="1" source="KHaLSb36ClMd-pHoIg8B-11" target="KHaLSb36ClMd-pHoIg8B-14">
          <mxGeometry relative="1" as="geometry" />
        </mxCell>
        <mxCell id="KHaLSb36ClMd-pHoIg8B-11" value="상품 리스트 표시" style="ellipse;whiteSpace=wrap;html=1;" vertex="1" parent="1">
          <mxGeometry x="1200" y="680" width="120" height="80" as="geometry" />
        </mxCell>
        <mxCell id="KHaLSb36ClMd-pHoIg8B-12" value="추가" style="ellipse;whiteSpace=wrap;html=1;" vertex="1" parent="1">
          <mxGeometry x="1360" y="580" width="120" height="80" as="geometry" />
        </mxCell>
        <mxCell id="KHaLSb36ClMd-pHoIg8B-13" value="수정" style="ellipse;whiteSpace=wrap;html=1;" vertex="1" parent="1">
          <mxGeometry x="1360" y="680" width="120" height="80" as="geometry" />
        </mxCell>
        <mxCell id="KHaLSb36ClMd-pHoIg8B-14" value="삭제" style="ellipse;whiteSpace=wrap;html=1;" vertex="1" parent="1">
          <mxGeometry x="1360" y="790" width="120" height="80" as="geometry" />
        </mxCell>
        <mxCell id="KHaLSb36ClMd-pHoIg8B-17" value="" style="endArrow=classic;html=1;rounded=0;entryX=0;entryY=0.5;entryDx=0;entryDy=0;" edge="1" parent="1" source="KHaLSb36ClMd-pHoIg8B-1" target="KHaLSb36ClMd-pHoIg8B-9">
          <mxGeometry width="50" height="50" relative="1" as="geometry">
            <mxPoint x="930" y="630" as="sourcePoint" />
            <mxPoint x="980" y="580" as="targetPoint" />
          </mxGeometry>
        </mxCell>
        <mxCell id="KHaLSb36ClMd-pHoIg8B-18" value="" style="endArrow=classic;html=1;rounded=0;entryX=0;entryY=0.5;entryDx=0;entryDy=0;exitX=1;exitY=0.3333333333333333;exitDx=0;exitDy=0;exitPerimeter=0;" edge="1" parent="1" source="KHaLSb36ClMd-pHoIg8B-1" target="KHaLSb36ClMd-pHoIg8B-10">
          <mxGeometry width="50" height="50" relative="1" as="geometry">
            <mxPoint x="920" y="670" as="sourcePoint" />
            <mxPoint x="1010" y="610" as="targetPoint" />
          </mxGeometry>
        </mxCell>
      </root>
    </mxGraphModel>
  </diagram>
</mxfile>
